<?xml version="1.0" encoding="UTF-8" standalone="no"?>
<!-- Created with Inkscape (http://www.inkscape.org/) -->

<svg
   xmlns:dc="http://purl.org/dc/elements/1.1/"
   xmlns:cc="http://creativecommons.org/ns#"
   xmlns:rdf="http://www.w3.org/1999/02/22-rdf-syntax-ns#"
   xmlns:svg="http://www.w3.org/2000/svg"
   xmlns="http://www.w3.org/2000/svg"
   xmlns:sodipodi="http://sodipodi.sourceforge.net/DTD/sodipodi-0.dtd"
   xmlns:inkscape="http://www.inkscape.org/namespaces/inkscape"
   version="1.1"
   id="svg869"
   width="512"
   height="512"
   viewBox="0 0 512 512"
   sodipodi:docname="burger-icon--blue.svg"
   inkscape:version="0.92.4 (f8dce91, 2019-08-02)">
  <metadata
     id="metadata875">
    <rdf:RDF>
      <cc:Work
         rdf:about="">
        <dc:format>image/svg+xml</dc:format>
        <dc:type
           rdf:resource="http://purl.org/dc/dcmitype/StillImage" />
        <dc:title></dc:title>
      </cc:Work>
    </rdf:RDF>
  </metadata>
  <defs
     id="defs873" />
  <sodipodi:namedview
     pagecolor="#ffffff"
     bordercolor="#666666"
     borderopacity="1"
     objecttolerance="10"
     gridtolerance="10"
     guidetolerance="10"
     inkscape:pageopacity="0"
     inkscape:pageshadow="2"
     inkscape:window-width="1920"
     inkscape:window-height="1025"
     id="namedview871"
     showgrid="false"
     inkscape:pagecheckerboard="true"
     inkscape:zoom="1.6484375"
     inkscape:cx="256"
     inkscape:cy="256"
     inkscape:window-x="0"
     inkscape:window-y="27"
     inkscape:window-maximized="1"
     inkscape:current-layer="svg869" />
  <path
     style="fill:#2d4c77;fill-opacity:1"
     d="M 235.63831,510.93575 C 168.93183,505.38312 106.57902,473.77866 63.101611,423.48292 -2.7649409,347.28685 -18.048078,241.83456 23.455261,149.92661 44.284561,103.80073 81.846241,62.096658 126.20123,35.849578 205.25301,-10.929351 304.49072,-11.444611 383.63335,34.512944 482.64908,92.010668 531.3728,206.44136 504.11983,317.48292 c -22.44142,91.43696 -95.13801,164.13355 -186.57497,186.57497 -25.21753,6.18915 -57.55667,8.90473 -81.90655,6.87786 z m 44.19596,-32.01059 c 43.33703,-4.72065 86.30661,-22.90479 119.15762,-50.42587 8.17386,-6.84769 25.12938,-23.95926 31.73881,-32.03091 7.28775,-8.90006 18.76967,-26.69394 24.6002,-38.12371 18.06421,-35.41183 25.6824,-69.65969 24.41895,-109.77622 C 478.653,213.74202 471.19008,184.70994 455.35508,153.66846 444.39842,132.19001 430.32034,113.33148 411.88928,95.443068 398.91922,82.854878 394.24884,79.033518 380.53032,69.784831 345.36109,46.074604 306.35452,33.572176 263.45933,32.26111 c -38.7242,-1.183582 -71.14363,5.664335 -104.91447,22.160958 -29.86731,14.5898 -53.43838,33.08022 -75.289119,59.060852 -16.18345,19.24219 -32.05175,47.75789 -40.0663,72 -13.44785,40.67661 -14.74072,86.43618 -3.64337,128.9532 7.00333,26.83172 24.13668,60.4454 41.81295,82.03226 6.60942,8.07165 23.564949,25.18322 31.738809,32.03091 33.42458,28.00159 77.23817,46.25581 121.94703,50.80725 8.16023,0.83073 35.82441,0.59516 44.78941,-0.38138 z M 153.04463,349.75159 c -4.84164,-2.44103 -8.99977,-8.80252 -8.99977,-13.76867 0,-4.94715 4.15885,-11.32797 8.96189,-13.75 l 4.46189,-2.25 h 98.57622 98.57622 l 4.43901,2.25 c 5.52869,2.80232 8.36939,7.46929 8.36939,13.75 0,5.75314 -2.73183,10.71042 -7.42,13.46462 -3.41336,2.00527 -4.93669,2.03935 -102.96485,2.30405 l -99.50023,0.26867 z m 0,-80 c -5.82683,-2.93774 -9.5266,-9.69092 -8.53257,-15.57451 0.89146,-5.2765 3.79778,-9.74405 7.73858,-11.89561 3.09904,-1.69199 9.18966,-1.81447 102.79445,-2.06722 l 99.50023,-0.26867 4.47689,2.26867 c 5.56825,2.82172 8.40727,7.4712 8.40727,13.76867 0,5.75314 -2.73183,10.71042 -7.42,13.46462 -3.41336,2.00527 -4.93669,2.03935 -102.96485,2.30405 l -99.50023,0.26867 z m 1.50023,-79.26171 c -13.85371,-4.93556 -13.10039,-25.47034 1.0788,-29.40711 2.70312,-0.7505 34.22042,-1.09043 101.45931,-1.09427 l 97.53811,-0.006 4.43901,2.25 c 5.52869,2.80232 8.36939,7.46929 8.36939,13.75 0,5.75314 -2.73183,10.71042 -7.42,13.46462 -3.4147,2.00605 -4.89099,2.03849 -102.46462,2.25139 -83.54577,0.18229 -99.62441,-0.006 -103,-1.20905 z"
     id="path879"
     inkscape:connector-curvature="0" />
</svg>
