<?xml version="1.0" encoding="UTF-8" standalone="no"?>
<svg
   xmlns:dc="http://purl.org/dc/elements/1.1/"
   xmlns:cc="http://creativecommons.org/ns#"
   xmlns:rdf="http://www.w3.org/1999/02/22-rdf-syntax-ns#"
   xmlns:svg="http://www.w3.org/2000/svg"
   xmlns="http://www.w3.org/2000/svg"
   viewBox="0 0 2698.2487 1176.3578"
   height="1176.3578"
   width="2698.2488"
   id="svg872"
   version="1.1">
  <metadata
     id="metadata878">
    <rdf:RDF>
      <cc:Work
         rdf:about="">
        <dc:format>image/svg+xml</dc:format>
        <dc:type
           rdf:resource="http://purl.org/dc/dcmitype/StillImage" />
        <dc:title></dc:title>
      </cc:Work>
    </rdf:RDF>
  </metadata>
  <defs
     id="defs876" />
  <g
     transform="translate(-174.45034,6.0572956)"
     style="display:inline"
     id="layer1">
    <g
       id="g981">
      <path
         style="fill:#ff8800;fill-opacity:1;stroke-width:0.99827957"
         d="m 1758.9277,510.7207 a 321.67441,321.67441 0 0 0 320.5,298.2168 321.67441,321.67441 0 0 0 320.7832,-298.2168 h -59.5234 A 263.88483,263.88483 0 0 1 2077.8164,754.35156 263.88483,263.88483 0 0 1 1814.7852,510.7207 Z"
         id="path933" />
      <path
         style="fill:#ff8800;fill-opacity:1"
         d="m 2003.0234,1058.0312 a 55.903233,55.903233 0 0 0 -55.9023,55.9043 55.903233,55.903233 0 0 0 55.9023,55.9024 55.903233,55.903233 0 0 0 55.9043,-55.9024 55.903233,55.903233 0 0 0 -55.9043,-55.9043 z m -0.021,11.9649 a 43.855648,43.855648 0 0 1 43.8554,43.8555 43.855648,43.855648 0 0 1 -43.8554,43.8554 43.855648,43.855648 0 0 1 -43.8555,-43.8554 43.855648,43.855648 0 0 1 43.8555,-43.8555 z"
         id="path976" />
    </g>
  </g>
  <g
     transform="translate(-174.45034,6.0572956)"
     style="display:inline"
     id="layer2">
    <path
       id="path888"
       d="m 1244.9478,1169.9449 c 0.1689,-0.4511 4.5412,-13.4234 11.2841,-33.4785 2.8699,-8.536 9.0501,-26.896 13.7338,-40.8 4.6837,-13.904 9.3595,-27.8 10.3907,-30.88 l 1.8749,-5.6 3.6295,-0.08 3.6295,-0.08 0.65,1.3603 c 0.3575,0.7481 3.111,6.1842 6.1188,12.0802 12.8898,25.2668 19.798,38.9064 19.8947,39.28 0.1528,0.5908 0.9153,0.4857 1.1616,-0.16 0.1176,-0.308 1.12,-2.072 2.2276,-3.92 1.1077,-1.848 4.7754,-7.9902 8.1505,-13.6494 5.9547,-9.9844 6.1803,-10.3099 7.6125,-10.9831 1.675,-0.7874 2.7799,-0.6672 3.3308,0.3621 0.2008,0.3751 0.7694,1.8494 1.2636,3.2763 1.2099,3.4928 4.1165,11.6771 5.7513,16.1941 0.7326,2.024 1.5217,4.256 1.7537,4.96 0.3931,1.1931 1.3673,3.9316 5.1228,14.4 0.8208,2.288 1.6814,4.736 1.9124,5.44 0.231,0.704 1.0251,2.936 1.7646,4.96 0.7395,2.024 1.4611,4.04 1.6036,4.48 0.1425,0.44 0.9305,2.672 1.7511,4.96 0.8206,2.288 2.0477,5.744 2.727,7.68 1.5693,4.473 4.4068,12.4739 5.9354,16.7363 0.6502,1.8129 1.0807,3.3969 0.9566,3.52 -0.124,0.1231 -3.3989,0.2149 -7.2774,0.2042 l -7.0518,-0.02 -0.9267,-2.5405 c -0.5097,-1.3972 -1.6586,-4.6284 -2.5532,-7.1804 -0.8945,-2.552 -2.4173,-6.872 -3.384,-9.6 -0.9666,-2.728 -2.5477,-7.192 -3.5135,-9.92 -0.9657,-2.728 -2.8755,-8.056 -4.2438,-11.84 -1.3683,-3.784 -3.6939,-10.3008 -5.1681,-14.4817 -1.4741,-4.1809 -2.7916,-7.5645 -2.9278,-7.5191 -0.1361,0.045 -3.5943,5.6802 -7.6849,12.5219 -6.9732,11.6631 -7.5138,12.4696 -8.6621,12.9232 -2.2509,0.8892 -1.1692,2.6734 -15.5704,-25.6843 -4.1114,-8.096 -8.4225,-16.6197 -9.5801,-18.9415 -1.1577,-2.3218 -2.2488,-4.2277 -2.4248,-4.2352 -0.176,-0.01 -1.0702,2.2521 -1.9871,5.0214 -4.48,13.5316 -27.2497,81.0265 -27.4366,81.329 -0.2502,0.4046 -13.9904,0.3101 -13.8388,-0.095 z m -261.53752,-55.8785 v -55.36 h 6.5581 6.558 l 0.082,24.7842 0.082,24.7842 15.64782,-24.7842 15.6477,-24.7842 h 7.1865 c 5.9782,0 7.158,0.074 7.017,0.4416 -0.093,0.2428 -7.4748,11.7988 -16.4036,25.68 -8.9288,13.8811 -16.5003,25.683 -16.8257,26.2264 l -0.5915,0.988 18.5141,28.612 18.514,28.612 -7.0728,0.086 c -6.4542,0.079 -7.1095,0.037 -7.4925,-0.48 -0.2308,-0.3115 -8.0069,-12.2791 -17.2803,-26.5947 l -16.86072,-26.0284 -0.082,26.5884 -0.082,26.5883 h -6.5581 -6.5582 z m 80.96002,0 v -55.36 h 6.56 6.56 v 55.36 55.36 h -6.56 -6.56 z m 43.2,0 v -55.36 h 6.56 6.56 v 51.04 51.04 h 17.12 17.12 v 4.32 4.32 h -23.68 -23.68 z m 78.9147,55.0294 c -3.2772,-0.5637 -5.7822,-2.1514 -7.0397,-4.4618 l -0.835,-1.5342 v -49.0334 -49.0333 l 0.835,-1.5342 c 0.983,-1.8061 2.829,-3.2259 5.2575,-4.0439 1.6337,-0.5502 3.2793,-0.5886 25.2675,-0.5886 21.8359,0 23.646,0.042 25.28,0.5793 2.5216,0.8299 4.5693,2.4273 5.4783,4.2736 l 0.7617,1.5471 v 48.8 48.8 l -0.7617,1.5472 c -0.8755,1.7784 -2.8747,3.383 -5.3115,4.2634 -1.4898,0.5382 -3.2732,0.5844 -24.4868,0.6342 -12.584,0.029 -23.5844,-0.067 -24.4453,-0.2154 z m 42.0453,-55.0294 v -46.72 h -18.4 -18.4 v 46.72 46.72 h 18.4 18.4 z m 147.52,0 v -55.36 h 24.16 24.16 v 4.32 4.32 h -17.6 -17.6 v 20.64 20.64 h 16 16 v 4.48 4.48 h -16 -16 v 21.6 21.6 h 17.92 17.92 v 4.32 4.32 h -24.48 -24.48 z m 89.92,4.32 v -51.04 h -11.68 -11.68 v -4.32 -4.32 h 29.76 29.76 v 4.32 4.32 h -11.52 -11.52 v 51.04 51.04 h -6.56 -6.56 z m 56.96,-4.3322 v -55.3722 l 26.48,0.092 26.48,0.092 1.76,0.7135 c 2.2432,0.9094 3.9863,2.3488 4.8893,4.0375 l 0.7107,1.329 v 22.56 22.56 l -0.8061,1.44 c -1.0157,1.8147 -3.3808,3.281 -6.5109,4.0368 -1.8096,0.437 -3.6268,0.5434 -8.763,0.513 -3.564,-0.021 -6.48,0.034 -6.48,0.1214 0,0.088 3.0417,6.4528 6.7594,14.1443 3.7177,7.6915 9.4206,19.5285 12.673,26.3045 3.2524,6.776 5.9809,12.4309 6.0633,12.5663 0.082,0.1355 -2.9657,0.2075 -6.7736,0.16 l -6.9234,-0.086 -13.8573,-29.6 -13.8573,-29.6 0.8379,-1.0169 0.838,-1.0169 11.92,-0.023 11.92,-0.023 v -20.32 -20.32 h -17.12 -17.12 v 51.04 51.04 h -6.56 -6.56 v -55.3722 z m 88.32,0.012 v -55.36 h 24.16 24.16 v 4.32 4.32 h -17.6 -17.6 v 20.64 20.64 h 16 16 v 4.48 4.48 h -16 -16 v 21.6 21.6 h 17.92 17.92 v 4.32 4.32 h -24.48 -24.48 z m 110.72,52.7703 v -2.5897 l 20.96,-48.263 c 11.528,-26.5447 20.96,-48.3473 20.96,-48.4503 0,-0.103 -8.496,-0.1873 -18.88,-0.1873 h -18.88 v -4.32 -4.32 h 26.56 26.56 v 2.3481 2.3481 l -21.0754,48.6119 -21.0754,48.6119 21.0754,0.082 21.0754,0.082 v 4.3177 4.3177 h -28.64 -28.64 z m 79.68,-52.7703 v -55.36 h 24.16 24.16 v 4.32 4.32 h -17.6 -17.6 v 20.64 20.64 h 16 16 v 4.48 4.48 h -16 -16 v 21.6 21.6 h 17.92 17.92 v 4.32 4.32 h -24.48 -24.48 z m 74.88,-0.012 v -55.3722 l 26.48,0.092 26.48,0.092 1.76,0.7135 c 2.2431,0.9094 3.9862,2.3488 4.8893,4.0374 l 0.7107,1.3291 v 22.56 22.56 l -0.8061,1.44 c -1.0157,1.8146 -3.3808,3.2809 -6.5109,4.0368 -1.8096,0.4369 -3.6268,0.5433 -8.763,0.5129 -3.564,-0.021 -6.48,0.034 -6.48,0.1214 0,0.088 3.0417,6.4528 6.7594,14.1443 3.7177,7.6915 9.4205,19.5286 12.673,26.3046 3.2524,6.776 5.9809,12.4308 6.0633,12.5663 0.082,0.1354 -2.9657,0.2074 -6.7736,0.16 l -6.9234,-0.086 -13.8573,-29.6 -13.8573,-29.6 0.8379,-1.0169 0.838,-1.0169 11.92,-0.023 11.92,-0.023 v -20.32 -20.32 h -17.12 -17.12 v 51.04 51.04 h -6.56 -6.56 v -55.3722 z M 655.73033,687.02645 v -176.16 h -240.63999 -240.64 v -27.2 -27.2 h 240.64 240.63999 v -166.72 -166.72 h 35.35968 35.35971 l 0.0803,166.32 0.0803,166.32 83.7999,-166.32 83.7999,-166.32 h 38.52009 38.52007 v 2 2 l -84.47562,164.60951 c -46.46134,90.53523 -84.47539,164.65939 -84.47539,164.72038 0,0.061 59.98634,0.0747 133.30294,0.0304 l 133.30289,-0.0804 3.1778,-7.36 c 1.7478,-4.048 3.3153,-7.648 3.4833,-8 0.1681,-0.352 1.4763,-3.376 2.907,-6.72 1.4308,-3.344 2.9321,-6.80327 3.3361,-7.68727 0.4041,-0.884 1.2406,-2.828 1.8588,-4.32 1.0468,-2.52611 1.9428,-4.57693 3.4563,-7.91117 0.3391,-0.74713 1.1384,-2.61913 1.7762,-4.16 0.6377,-1.54086 1.5547,-3.66556 2.0377,-4.72156 0.483,-1.056 1.7048,-3.864 2.715,-6.24 1.0103,-2.376 2.0959,-4.896 2.4124,-5.6 0.3166,-0.704 2.2402,-5.13024 4.2748,-9.8361 2.0345,-4.70586 3.9994,-9.24186 4.3664,-10.08 1.1337,-2.58922 1.1966,-2.73318 2.3417,-5.3639 0.613,-1.408 1.4875,-3.45655 1.9434,-4.55236 0.769,-1.84841 1.621,-3.79273 3.0531,-6.96764 0.3177,-0.704 1.0834,-2.504 1.7019,-4 0.6186,-1.496 1.5812,-3.71597 2.1392,-4.93328 0.558,-1.21728 1.7801,-4.03172 2.7158,-6.25431 0.9357,-2.22256 1.9937,-4.68259 2.3507,-5.46672 0.3571,-0.78413 3.4495,-7.90569 6.872,-15.82569 5.5762,-12.90413 6.9485,-16.06704 7.9138,-18.24 1.3436,-3.02493 1.9993,-4.5456 2.9694,-6.88727 0.6179,-1.492 1.5803,-3.7087 2.1383,-4.92601 0.558,-1.21728 1.7802,-4.03172 2.7159,-6.25431 0.9357,-2.22256 1.9934,-4.68259 2.3503,-5.46672 0.3569,-0.78413 2.3291,-5.31369 4.3827,-10.06569 2.0535,-4.752 3.9293,-9.072 4.1683,-9.6 0.239,-0.528 1.3928,-3.192 2.5639,-5.92 2.1087,-4.91223 2.9927,-6.94221 3.8319,-8.8 0.2386,-0.528 1.2268,-2.84404 2.1962,-5.14672 0.9693,-2.30272 2.1839,-5.11072 2.6991,-6.24 0.5152,-1.12932 1.6619,-3.78128 2.5483,-5.89328 0.8865,-2.112 2.0079,-4.704 2.4922,-5.76 0.4843,-1.056 1.7749,-4.008 2.8679,-6.56 2.3694,-5.53165 10.264,-23.7546 10.8827,-25.12 0.2392,-0.528 1.6063,-3.69136 3.0381,-7.02968 1.4317,-3.33831 2.8975,-6.71588 3.2573,-7.50569 0.3598,-0.78982 1.4161,-3.24584 2.3474,-5.45784 0.9313,-2.212 2.0538,-4.81044 2.4945,-5.77431 0.4406,-0.96386 1.476,-3.33648 2.3007,-5.27248 0.8248,-1.936 1.7604,-4.096 2.0791,-4.8 0.3187,-0.704 3.6272,-8.336 7.3522,-16.96 3.725,-8.624 6.9671,-16.112 7.2047,-16.64 1.3586,-3.01964 2.1225,-4.77926 3.1286,-7.20728 0.9924,-2.39483 1.5932,-3.77538 3.2694,-7.51272 0.2368,-0.528 1.1033,-2.544 1.9254,-4.48 0.8222,-1.936 1.687,-3.952 1.9217,-4.48 0.2348,-0.528 0.7791,-1.752 1.2098,-2.72 0.4306,-0.968 1.3927,-3.2 2.138,-4.96 0.7454,-1.76 1.6814,-3.92 2.08,-4.8 0.3987,-0.88 1.3377,-3.04 2.0868,-4.8 0.7491,-1.76 1.6878,-3.92 2.0861,-4.8 0.3983,-0.88 1.5495,-3.544 2.5583,-5.92 1.0087,-2.376 2.0949,-4.896 2.4138,-5.6 0.3189,-0.704 1.5368,-3.512 2.7067,-6.24 1.1698,-2.728 2.3205,-5.392 2.5571,-5.92 1.4748,-3.29092 2.1261,-4.79203 3.1269,-7.20728 0.6183,-1.492 1.4865,-3.50472 1.9293,-4.47272 0.4428,-0.968 2.4803,-5.63523 4.5277,-10.37162 2.0474,-4.7364 4.0758,-9.38384 4.5075,-10.32766 0.4317,-0.94381 1.1457,-2.57314 1.5866,-3.62072 0.4409,-1.04759 1.1446,-2.66415 1.5638,-3.59235 0.4192,-0.92821 1.2259,-2.76765 1.7926,-4.08765 2.3942,-5.57604 5.5606,-12.65855 5.7651,-12.89501 0.2527,-0.29225 1.2795,1.30843 13.6085,21.21501 4.9598,8.008 13.0905,21.112 18.0683,29.12 4.9778,8.008 12.7914,20.608 17.3636,28 4.5722,7.392 9.3967,15.15741 10.7212,17.25648 2.3239,3.68295 12.1094,19.44953 26.6724,42.97495 3.8376,6.19928 8.228,13.25003 9.7565,15.66833 1.5285,2.4183 6.022,9.65815 9.9856,16.08857 3.9636,6.43041 9.6787,15.65167 12.7003,20.49167 5.147,8.24457 8.6279,13.84848 21.5231,34.65004 5.3604,8.64708 5.9454,9.50996 6.448,9.50996 0.1624,0 6.5798,-8.388 14.2608,-18.64 7.6812,-10.252 14.2389,-19 14.5728,-19.44 0.3338,-0.44 5.7309,-7.64 11.9934,-16 6.2625,-8.36 11.5614,-15.416 11.7752,-15.68 0.2138,-0.264 1.1916,-1.56 2.1729,-2.88 4.07,-5.475 15.2047,-20.35428 15.5649,-20.79935 0.5361,-0.66243 14.627,-19.4654 19.3957,-25.88178 2.1424,-2.88261 4.0422,-5.40261 4.2218,-5.6 0.1797,-0.19738 0.8829,-1.12441 1.5629,-2.06007 0.6799,-0.93565 1.3512,-1.58365 1.4918,-1.44 0.1406,0.14366 1.9993,4.3652 4.1306,9.3812 2.1313,5.016 4.0746,9.552 4.3185,10.08 0.244,0.528 1.9074,4.416 3.6965,8.64 1.7892,4.224 3.4448,8.112 3.6792,8.64 0.2344,0.528 0.7785,1.752 1.209,2.72 0.4306,0.968 2.1175,4.928 3.7487,8.8 1.6313,3.872 3.3165,7.832 3.745,8.8 0.4285,0.968 0.9687,2.192 1.2004,2.72 0.2317,0.528 2.4698,5.784 4.9735,11.68 2.5038,5.896 4.8098,11.296 5.1245,12 0.3148,0.704 2.0411,4.736 3.8363,8.96 3.072,7.22835 3.9233,9.20985 4.9492,11.52 0.2344,0.528 1.6772,3.912 3.2061,7.52 1.5289,3.608 3.0546,7.16409 3.3905,7.90243 0.3359,0.73837 0.6108,1.41232 0.6108,1.49769 0,0.0854 0.4181,1.06528 0.929,2.17754 0.511,1.11229 1.312,2.95834 1.78,4.10234 0.468,1.144 1.0475,2.512 1.2878,3.04 0.2402,0.528 1.2263,2.83539 2.1912,5.12752 0.9649,2.29212 2.1273,4.98288 2.5832,5.97948 0.4558,0.99658 0.8288,1.88893 0.8288,1.98301 0,0.15037 0.5233,1.36618 2.0789,4.82999 0.2371,0.528 1.8854,4.39465 3.6629,8.59257 2.9083,6.86835 3.9281,9.24906 4.8182,11.24743 0.6761,1.51808 1.6768,3.85612 3.819,8.92307 1.2563,2.97168 2.567,6.02377 2.9126,6.78243 0.3456,0.75866 0.6284,1.44925 0.6284,1.53462 0,0.0854 0.4181,1.06528 0.929,2.17754 0.511,1.11229 1.312,2.95834 1.78,4.10234 0.468,1.144 1.046,2.512 1.2844,3.04 0.2384,0.528 1.6844,3.912 3.2132,7.52 2.7028,6.37814 3.5784,8.41488 4.4715,10.4 0.2376,0.528 1.8944,4.416 3.6819,8.64 1.7875,4.224 3.4421,8.112 3.6769,8.64 1.2879,2.89532 3.0755,7.06089 6.7289,15.68 2.2381,5.28 4.3926,10.32 4.7878,11.2 0.3953,0.88 2.1209,4.912 3.8349,8.96 2.9099,6.87241 3.7303,8.78486 4.8049,11.2 0.2349,0.528 1.8282,4.272 3.5408,8.32 1.7124,4.048 3.4369,8.08 3.832,8.96 0.3951,0.88 2.3392,5.416 4.3202,10.08 1.9811,4.664 4.0141,9.38361 4.5178,10.488 0.5037,1.10441 0.9158,2.08432 0.9158,2.17756 0,0.15348 0.5666,1.48599 1.7581,4.13444 0.2376,0.528 1.8944,4.416 3.6819,8.64 1.7875,4.224 3.444,8.112 3.6811,8.64 1.0017,2.23049 2.1314,4.85395 4.7883,11.12 l 2.8154,6.64 h 46.6776 c 37.128,0 46.6779,-0.0818 46.679,-0.4 0,-0.98909 1.35,-11.63156 2.0853,-16.48276 8.8547,-58.42128 33.2096,-112.69593 70.9002,-158.00038 28.3996,-34.1367 63.7525,-62.08301 104.1331,-82.31683 6.7498,-3.38218 19.5212,-9.00147 26.88,-11.82698 10.7771,-4.13798 12.3664,-4.59538 37.0824,-10.67162 30.4409,-7.4837 30.2792,-7.44807 38.2776,-8.43777 14.7324,-1.82298 25.4345,-2.47568 40.7009,-2.4823 11.7047,-0.005 15.4265,0.12457 25.5391,0.88957 10.7114,0.81031 28.2202,3.12273 33.76,4.45874 1.056,0.25468 4.08,0.90586 6.72,1.44707 13.5485,2.77752 33.1377,8.42404 46.2207,13.32294 2.5626,0.95958 4.8991,1.79606 5.1922,1.85891 0.5627,0.12061 1.7899,0.63968 10.0271,4.24102 24,10.49296 44.825,22.50506 64.8058,37.38061 13.6632,10.17216 23.7834,18.98298 36.3142,31.61571 11.0205,11.11024 19.1292,20.41709 28.0581,32.20407 30.7141,40.54563 51.3336,87.65798 60.2231,137.6 1.7153,9.63676 3.3986,21.72153 3.3987,24.4 l 1e-4,1.2 h 236.64 236.6399 v 27.2 27.2 H 2250.3491 1627.999 l -9.4099,-20.87805 c -5.1754,-11.48295 -9.646,-21.11517 -9.9347,-21.40493 -0.5069,-0.50874 -1.7466,-3.15514 -7.4751,-15.95702 -0.827,-1.848 -1.7638,-3.936 -2.0819,-4.64 -1.2206,-2.70151 -2.2359,-4.964 -4.3079,-9.6 -1.1799,-2.64 -2.4737,-5.52 -2.8751,-6.4 -1.1125,-2.4392 -1.7836,-3.92842 -4.9751,-11.04 -1.6192,-3.608 -3.2033,-7.136 -3.5202,-7.84 -0.317,-0.704 -1.2529,-2.792 -2.0798,-4.64 -0.827,-1.848 -1.7938,-4.008 -2.1485,-4.8 -0.9482,-2.11671 -5.2873,-11.67882 -6.3631,-14.02234 -0.5106,-1.11226 -0.9284,-2.07574 -0.9284,-2.14106 0,-0.0653 -0.576,-1.35977 -1.28,-2.8766 -0.704,-1.51684 -1.28,-2.81284 -1.28,-2.88 0,-0.0672 -0.5888,-1.39063 -1.3084,-2.94106 -0.7196,-1.55043 -1.6021,-3.46694 -1.961,-4.25894 -0.359,-0.792 -1.1382,-2.49453 -1.7316,-3.78336 -0.5935,-1.28887 -1.079,-2.39434 -1.079,-2.45664 0,-0.0623 -0.5176,-1.23978 -1.1502,-2.61664 -0.6325,-1.37684 -1.5685,-3.41341 -2.08,-4.5257 -0.5114,-1.11226 -0.9298,-2.07376 -0.9298,-2.13661 0,-0.0629 -0.5205,-1.24083 -1.1566,-2.61769 -0.6361,-1.37684 -1.8024,-3.94336 -2.5918,-5.70336 -0.7893,-1.76 -1.6946,-3.776 -2.0116,-4.48 -0.3171,-0.704 -1.2531,-2.792 -2.08,-4.64 -3.5131,-7.85082 -10.0098,-22.27789 -11.0698,-24.58234 -0.5116,-1.11226 -0.9302,-2.07376 -0.9302,-2.13661 0,-0.0629 -0.5186,-1.24083 -1.1524,-2.61769 -0.6339,-1.37684 -1.5145,-3.29536 -1.9571,-4.26336 -0.4425,-0.968 -1.292,-2.80951 -1.8876,-4.09223 -0.5956,-1.28269 -1.0829,-2.39017 -1.0829,-2.46105 0,-0.0709 -0.576,-1.36989 -1.28,-2.88672 -0.704,-1.51684 -1.28,-2.81133 -1.28,-2.87661 0,-0.0653 -0.4187,-1.0288 -0.9305,-2.14106 -0.5118,-1.11229 -1.6066,-3.53433 -2.4331,-5.38233 -0.8265,-1.848 -1.9027,-4.224 -2.3917,-5.28 -0.489,-1.056 -1.2125,-2.64 -1.6079,-3.52 -0.3954,-0.88 -1.2044,-2.65453 -1.7978,-3.94336 -0.5935,-1.28887 -1.079,-2.39482 -1.079,-2.4577 0,-0.0629 -0.4186,-1.02435 -0.9303,-2.13661 -0.5116,-1.11229 -2.2537,-4.97433 -3.8713,-8.58233 -1.6176,-3.608 -3.2678,-7.28 -3.6671,-8.16 -1.3658,-3.01034 -2.029,-4.48263 -3.5313,-7.84 -2.071,-4.6281 -2.5432,-5.67936 -4.528,-10.08 -0.9526,-2.112 -2.1235,-4.73613 -2.602,-5.8314 -1.2318,-2.81958 -1.6129,-2.71241 -4.5629,1.28327 -1.3271,1.79747 -6.81,9.10013 -12.1841,16.22813 -8.6492,11.47187 -23.9213,31.73881 -25.5604,33.92 -2.6681,3.55078 -13.2335,17.54236 -13.5376,17.92784 -0.2118,0.26832 -5.137,6.79952 -10.945,14.51382 -5.808,7.71427 -12.576,16.7017 -15.04,19.97206 -2.464,3.27037 -4.624,5.98474 -4.8,6.03197 -0.176,0.0472 -4.496,-6.0992 -9.6,-13.65865 -5.104,-7.55949 -10.648,-15.75808 -12.32,-18.21917 -1.672,-2.46106 -6.136,-9.04935 -9.92,-14.64061 -15.3017,-22.60998 -19.848,-29.32525 -23.8897,-35.28726 -2.3267,-3.432 -6.1724,-9.12 -8.5463,-12.64 -2.3738,-3.52 -7.3407,-10.864 -11.0377,-16.32 -6.7599,-9.97636 -16.8492,-24.88925 -25.1704,-37.20391 -2.4662,-3.64985 -6.7278,-9.94809 -9.4701,-13.99609 -2.7423,-4.048 -8.4928,-12.544 -12.7789,-18.88 -13.4609,-19.8986 -16.5482,-24.32 -16.9818,-24.32 -0.2844,0 -134.2613,320.16537 -134.5281,321.4824 -0.1377,0.68003 -3.8109,9.52185 -4.9012,11.7976 -0.4637,0.968 -4.667,10.904 -9.3407,22.08 l -8.4976,20.32 -155.5246,0.16 -155.52458,0.16 91.11395,175.84 c 50.11267,96.712 91.12381,175.94854 91.13581,176.08124 0.012,0.1327 -17.4923,0.2047 -38.89859,0.16 l -38.92051,-0.081 -91.24326,-175.99996 -91.24326,-176 -1.03626,-0.10029 -1.03622,-0.10026 v 176.18026 176.18025 h -35.36 -35.36 V 687.02632 Z m 1683.51617,-231.12 c -0.01,-1.31661 -1.9944,-14.42077 -2.8971,-19.12 -9.5942,-49.9424 -33.6269,-96.22857 -68.8695,-132.64 -43.6266,-45.07344 -101.5182,-72.90029 -163.7496,-78.70976 -14.7174,-1.37389 -34.6545,-1.37129 -48.96,0.006 -33.4384,3.22023 -65.9873,12.80784 -95.5609,28.14839 -43.3317,22.47724 -78.9968,56.00054 -104.2275,97.96851 -15.547,25.86029 -27.0352,56.11539 -32.6652,86.02649 -0.7985,4.24215 -2.7433,17.22039 -2.7454,18.32 0,0.53287 12.5853,0.56 259.839,0.56 247.2547,0 259.8398,-0.0272 259.8362,-0.56 z m -89.445,-247.87565 c -0.3472,-0.23958 -4.0872,-2.27283 -8.3112,-4.5183 -4.224,-2.24544 -10.272,-5.48518 -13.44,-7.19939 -3.168,-1.71421 -7.992,-4.30995 -10.72,-5.76832 -6.7857,-3.62755 -7.1172,-3.83664 -6.7729,-4.27159 0.1597,-0.20172 2.9891,-5.40675 6.2875,-11.56675 3.2985,-6.16 6.4937,-12.10283 7.1005,-13.2063 l 1.1032,-2.0063 2.7809,1.49604 c 1.5294,0.82283 5.3728,2.89447 8.5408,4.60365 3.168,1.70918 9.864,5.30593 14.88,7.99278 13.1559,7.04704 14.4,7.72247 14.4,7.81803 0,0.0473 -0.739,1.43967 -1.6423,3.09408 -0.9033,1.65442 -3.255,6.03202 -5.2261,9.72802 -6.2665,11.7505 -7.6673,14.24 -8.0124,14.24 -0.1853,0 -0.6209,-0.19603 -0.968,-0.43565 z m -342.5669,-1.5704 c -0.4487,-0.92067 -3.1739,-6.28195 -6.056,-11.91395 -6.054,-11.82997 -7.1159,-13.96862 -6.9841,-14.0657 0.053,-0.0388 5.2078,-2.67182 11.4558,-5.85117 6.248,-3.17935 13.808,-7.04171 16.8,-8.58302 2.992,-1.54131 7.0603,-3.62188 9.0407,-4.62348 l 3.6008,-1.8211 1.7177,3.23223 c 3.3633,6.32868 12.4262,24.23314 12.3145,24.32799 -0.063,0.053 -3.7857,1.96822 -8.2737,4.25593 -4.488,2.28768 -12.192,6.21456 -17.12,8.72637 -4.928,2.51184 -10.4344,5.33981 -12.2363,6.28445 -1.802,0.94464 -3.314,1.71478 -3.36,1.71145 -0.046,-0.003 -0.4508,-0.75932 -0.8994,-1.68 z m 152.8996,-59.35395 -0.084,-11.76 -17.2,-0.0828 -17.2,-0.0828 V 98.22363 61.26641 h 53.92 53.92 v 36.95734 36.95733 l -18,0.0827 -18,0.0827 v 11.76007 11.76007 l -18.6361,-7e-5 -18.6361,-7e-5 z"
       style="fill:#000000;stroke-width:0.31999999" />
  </g>
</svg>
